HIERARCHY
ROOT Hips
{
	OFFSET 50.251900 -13.874416 100.567001
	CHANNELS 6 Xposition Yposition Zposition Xrotation Yrotation Zrotation
	JOINT spine
	{
		OFFSET 0.000000 -0.507026 8.817039
		CHANNELS 3 Xrotation Yrotation Zrotation
		JOINT spine1
		{
			OFFSET 0.000000 -0.000002 10.776604
			CHANNELS 3 Xrotation Yrotation Zrotation
			JOINT spine2
			{
				OFFSET 0.000000 -0.000001 10.325897
				CHANNELS 3 Xrotation Yrotation Zrotation
				JOINT Neck
				{
					OFFSET 0.000000 -1.263955 26.511002
					CHANNELS 3 Xrotation Yrotation Zrotation
					JOINT Head
					{
						OFFSET 0.000000 -0.000001 8.009659
						CHANNELS 3 Xrotation Yrotation Zrotation
						End Site
						{
							OFFSET 0.000000 6.393856 19.387894
						}
					}
				}
				JOINT RightShoulder
				{
					OFFSET -4.347950 0.605420 11.151199
					CHANNELS 3 Xrotation Yrotation Zrotation
					JOINT RightArm
					{
						OFFSET 0.000000 -0.000003 14.625793
						CHANNELS 3 Xrotation Yrotation Zrotation
						JOINT RightArmRoll
						{
							OFFSET 0.000000 -0.000001 7.383408
							CHANNELS 3 Xrotation Yrotation Zrotation
							JOINT RightForeArm
							{
								OFFSET 0.000000 -0.000004 21.505203
								CHANNELS 3 Xrotation Yrotation Zrotation
								JOINT RightForeArmRoll
								{
									OFFSET 0.000000 -0.000001 8.285324
									CHANNELS 3 Xrotation Yrotation Zrotation
									JOINT RightHand
									{
										OFFSET 0.000000 -0.000003 16.626801
										CHANNELS 3 Xrotation Yrotation Zrotation
										End Site
										{
											OFFSET 0.000000 0.000000 0.100006
										}
									}
								}
							}
						}
					}
				}
				JOINT LeftShoulder
				{
					OFFSET 4.347950 0.605420 11.151199
					CHANNELS 3 Xrotation Yrotation Zrotation
					JOINT LeftArm
					{
						OFFSET 0.000000 -0.000003 14.625793
						CHANNELS 3 Xrotation Yrotation Zrotation
						JOINT LeftArmRoll
						{
							OFFSET 0.000000 -0.000001 7.383392
							CHANNELS 3 Xrotation Yrotation Zrotation
							JOINT LeftForeArm
							{
								OFFSET 0.000000 -0.000004 21.505203
								CHANNELS 3 Xrotation Yrotation Zrotation
								JOINT LeftForeArmRoll
								{
									OFFSET 0.000000 -0.000001 8.285309
									CHANNELS 3 Xrotation Yrotation Zrotation
									JOINT LeftHand
									{
										OFFSET 0.000000 -0.000003 16.626801
										CHANNELS 3 Xrotation Yrotation Zrotation
										End Site
										{
											OFFSET 0.000000 0.000000 0.100006
										}
									}
								}
							}
						}
					}
				}
			}
		}
	}
	JOINT RightUpLeg
	{
		OFFSET -7.815102 1.202170 -1.433090
		CHANNELS 3 Xrotation Yrotation Zrotation
		JOINT RightUpLegRoll
		{
			OFFSET 0.000000 -0.000003 19.495895
			CHANNELS 3 Xrotation Yrotation Zrotation
			JOINT RightLeg
			{
				OFFSET 0.000000 0.000004 -24.142700
				CHANNELS 3 Xrotation Yrotation Zrotation
				JOINT RightLegRoll
				{
					OFFSET 0.000000 -0.000004 24.221703
					CHANNELS 3 Xrotation Yrotation Zrotation
					JOINT RightFoot
					{
						OFFSET 0.000000 -0.000004 20.160500
						CHANNELS 3 Xrotation Yrotation Zrotation
						JOINT RightToeBase
						{
							OFFSET 0.000000 -0.000003 16.853195
							CHANNELS 3 Xrotation Yrotation Zrotation
							End Site
							{
								OFFSET 0.007145 0.940779 8.161865
							}
						}
					}
				}
			}
		}
	}
	JOINT LeftUpLeg
	{
		OFFSET 7.815102 1.202170 -1.433090
		CHANNELS 3 Xrotation Yrotation Zrotation
		JOINT LeftUpLegRoll
		{
			OFFSET 0.000000 -0.000003 19.496002
			CHANNELS 3 Xrotation Yrotation Zrotation
			JOINT LeftLeg
			{
				OFFSET 0.000000 -0.000004 24.142593
				CHANNELS 3 Xrotation Yrotation Zrotation
				JOINT LeftLegRoll
				{
					OFFSET 0.000000 -0.000005 24.445602
					CHANNELS 3 Xrotation Yrotation Zrotation
					JOINT LeftFoot
					{
						OFFSET 0.000000 -0.000003 19.936600
						CHANNELS 3 Xrotation Yrotation Zrotation
						JOINT LeftToeBase
						{
							OFFSET 0.000000 -0.000003 16.853195
							CHANNELS 3 Xrotation Yrotation Zrotation
							End Site
							{
								OFFSET -0.032013 0.940779 8.161865
							}
						}
					}
				}
			}
		}
	}
}
MOTION
Frames: 6
Frame Time: 0.041667
51.129604 -14.369318 100.567001 -2.665925 0.460757 3.562724 -2.482410 0.182664 -0.184900 -0.963993 0.370708 -0.365559 0.681084 0.366302 -0.369993 19.530002 -0.508913 0.396227 0.944994 1.309452 0.218091 -12.210458 -39.531919 -13.442401 -139.808713 -139.443025 -117.898518 -0.000005 -0.000008 0.000001 109.902621 4.262328 -2.586153 0.000005 0.000002 -3.007849 -5.000210 -7.998901 0.000143 -6.975843 63.116781 8.589316 -40.591917 112.972032 32.863804 -0.000001 -0.000007 0.000003 2.622847 11.875700 0.146441 0.000008 -0.000006 3.000001 -5.000209 7.998710 -0.000176 2.379366 -178.495301 -0.197157 -179.999991 0.000005 -1.113999 174.291442 -1.565205 -0.426458 0.000000 0.000002 0.067895 69.116692 6.890186 2.114745 25.748305 -7.355613 0.439730 1.213676 175.660963 1.320582 -0.000005 -0.000005 -1.132420 -8.525060 2.098466 0.488196 -0.000008 0.000004 -0.179344 71.098601 -6.856261 -2.074809 25.648048 7.355034 -0.287209 
51.126003 -14.368322 100.571991 -2.661904 0.459743 3.584574 -2.481453 0.182960 -0.184244 -0.961894 0.371477 -0.365056 0.683182 0.367079 -0.369499 19.450029 -0.519176 0.399125 0.996944 1.304022 0.221382 -12.207590 -39.505736 -13.437014 -139.861879 -139.385241 -118.077770 -0.000003 -0.000007 0.000001 110.184946 4.312147 -2.680879 0.000005 0.000002 -3.007849 -5.000209 -7.998904 0.000147 -6.992799 63.126289 8.609551 -40.612677 112.999374 32.906523 -0.000003 -0.000008 0.000003 2.627745 11.885245 0.145088 0.000009 -0.000006 3.000000 -5.000208 7.998712 -0.000176 2.375879 -178.499290 -0.200898 -179.999991 0.000006 -1.113999 174.287126 -1.562202 -0.426276 0.000000 0.000002 0.067849 69.120299 6.890236 2.114730 25.749016 -7.355613 0.441052 1.204732 175.657958 1.322316 -0.000005 -0.000004 -1.132430 -8.523345 2.095983 0.488021 -0.000007 0.000004 -0.179256 71.096491 -6.856340 -2.074752 25.646527 7.355024 -0.285518 
51.114403 -14.371121 100.571999 -2.657763 0.458848 3.606459 -2.480572 0.183272 -0.183578 -0.960006 0.372264 -0.364436 0.685071 0.367875 -0.368888 19.374856 -0.526413 0.401991 1.043060 1.294585 0.225294 -12.204626 -39.479853 -13.431506 -139.914731 -139.328619 -118.246380 -0.000003 -0.000009 -0.000001 110.454623 4.358740 -2.769782 0.000004 -0.000001 -3.007849 -5.000208 -7.998905 0.000146 -7.008179 63.137278 8.628080 -40.635469 113.024878 32.950666 -0.000003 -0.000007 0.000004 2.632586 11.894791 0.143713 0.000007 -0.000006 3.000002 -5.000209 7.998708 -0.000176 2.372083 -178.504276 -0.204789 -179.999991 0.000005 -1.113999 174.282522 -1.560205 -0.426203 0.000000 0.000002 0.067807 69.124117 6.890295 2.114804 25.749724 -7.355618 0.442264 1.195499 175.655936 1.323974 -0.000005 -0.000004 -1.132450 -8.521862 2.093628 0.487853 -0.000008 0.000004 -0.179167 71.094394 -6.856415 -2.074793 25.644920 7.355033 -0.283758 
51.118404 -14.369319 100.570999 -2.653505 0.458086 3.628280 -2.479784 0.183602 -0.182901 -0.958350 0.373066 -0.363675 0.686727 0.368689 -0.368136 19.306156 -0.529352 0.404968 1.081209 1.279142 0.230242 -12.201428 -39.454400 -13.425727 -139.966504 -139.273131 -118.402914 -0.000002 -0.000008 -0.000001 110.711281 4.401999 -2.852768 0.000004 0.000001 -3.007849 -5.000212 -7.998899 0.000143 -7.021770 63.149955 8.644678 -40.660461 113.048633 32.996142 -0.000001 -0.000008 0.000004 2.637316 11.904037 0.142343 0.000007 -0.000006 3.000001 -5.000212 7.998710 -0.000176 2.367987 -178.508278 -0.208741 -179.999991 0.000005 -1.114996 174.277563 -1.557201 -0.426039 -0.000000 0.000002 0.067770 69.128345 6.890307 2.114843 25.750431 -7.355620 0.443357 1.186016 175.652931 1.325461 -0.000005 -0.000004 -1.132460 -8.520588 2.091440 0.487693 -0.000008 0.000004 -0.179079 71.092297 -6.856520 -2.074741 25.643397 7.355035 -0.281941 
51.111603 -14.367418 100.571999 -2.649144 0.457470 3.649966 -2.479106 0.183949 -0.182213 -0.956955 0.373884 -0.362751 0.688124 0.369518 -0.367220 19.245547 -0.526725 0.408200 1.109312 1.255654 0.236636 -12.197901 -39.429582 -13.419548 -140.017061 -139.219186 -118.546484 -0.000001 -0.000006 0.000003 110.954231 4.441825 -2.927814 0.000006 0.000001 -3.007849 -5.000212 -7.998899 0.000145 -7.033343 63.164353 8.659088 -40.685944 113.071323 33.040852 -0.000001 -0.000008 0.000004 2.641881 11.913087 0.140975 0.000008 -0.000007 3.000001 -5.000211 7.998711 -0.000177 2.363569 -178.512267 -0.212791 -179.999991 0.000005 -1.114996 174.272277 -1.554210 -0.425884 -0.000000 0.000002 0.067736 69.132900 6.890335 2.114864 25.751037 -7.355618 0.444291 1.176332 175.649912 1.326782 -0.000005 -0.000004 -1.132470 -8.519527 2.089448 0.487541 -0.000008 0.000004 -0.178992 71.090193 -6.856595 -2.074783 25.641988 7.355031 -0.280067 
51.109005 -14.366723 100.573990 -2.644725 0.457014 3.671420 -2.478525 0.184313 -0.181515 -0.955845 0.374717 -0.361636 0.689233 0.370365 -0.366115 19.194613 -0.517260 0.411835 1.125257 1.222114 0.244883 -12.193890 -39.405308 -13.412786 -140.065774 -139.166812 -118.675534 -0.000003 -0.000008 0.000006 111.182728 4.477709 -2.996692 0.000004 0.000002 -3.007851 -5.000214 -7.998899 0.000146 -7.042768 63.180862 8.671183 -40.716315 113.090598 33.089374 -0.000005 -0.000008 0.000003 2.646225 11.921638 0.139633 0.000007 -0.000006 3.000000 -5.000211 7.998711 -0.000176 2.358834 -178.516256 -0.216930 -179.999991 0.000005 -1.114996 174.266621 -1.551204 -0.426735 0.000000 0.000002 0.067709 69.137770 6.890378 2.114869 25.751640 -7.355618 0.445056 1.166500 175.646907 1.327887 -0.000005 -0.000004 -1.132470 -8.518658 2.087692 0.487396 -0.000008 0.000004 -0.178904 71.088076 -6.856671 -2.074825 25.640472 7.355034 -0.278101 
